<?xml version="1.0" encoding="utf-8"?>
<!-- Generator: Adobe Illustrator 23.1.1, SVG Export Plug-In . SVG Version: 6.00 Build 0)  -->
<svg version="1.1" xmlns="http://www.w3.org/2000/svg" xmlns:xlink="http://www.w3.org/1999/xlink" x="0px" y="0px"
	 viewBox="0 0 602.5 399" style="enable-background:new 0 0 602.5 399;" xml:space="preserve">
<style type="text/css">
	.st0{fill:#FFFFFF;stroke:#196EFF;stroke-width:3;stroke-miterlimit:10;}
</style>
<g id="background_1_">
	<g id="background">
	</g>
</g>
<g id="Layer_2">
	<g>
		<path class="st0" d="M57.6,331.6c14.9-11.1,28-25,39.5-41.8c0.8-7.6,2.3-15.1,4.6-22.3c2.3-7.2,4.4-14.7,6.3-22.3
			c3.8-14.5,7.5-28.7,11.2-42.6c3.6-13.9,7.3-27.9,11.2-42c4.2-16.8,8.5-33.4,12.9-49.8c4.4-16.4,10-32.4,16.9-48
			c1.1-2.3,2.6-5.4,4.3-9.4s3.7-7.8,6-11.4c2.3-3.6,5-6.4,8-8.3c3-1.9,6.3-1.7,9.7,0.6c4.2,2.7,6.5,7.3,6.9,14
			c0.4,6.7,0.6,12.3,0.6,16.9c0,16.4-2.7,34.9-8,55.5c-5.3,20.6-12.1,41.4-20.3,62.3c-8.2,21-17.3,41.3-27.2,60.9
			c-9.9,19.6-19.4,36.7-28.6,51.2c0,1.9-0.1,3.5-0.3,4.9c-0.2,1.3-0.3,3-0.3,4.9c0.4,5,0.8,10.1,1.1,15.4c0.4,5.3,1.5,10.1,3.4,14.3
			c1.9,4.2,5.5,7.9,10.9,11.2c5.3,3.2,10.1,5.2,14.3,6c8.8,1.1,17.6-0.7,26.6-5.4c9-4.8,17.1-9.6,24.3-14.6c1.9-1.5,3.8-1.9,5.7-1.1
			c1.9,0.8,3.2,1.9,4,3.4c0.8,1.5,1,3.3,0.9,5.4c-0.2,2.1-1.2,3.7-3.1,4.9c-7.6,5-16,9.9-25.2,14.9c-9.2,5-18.7,7.4-28.6,7.4
			c-8.8,0-17.7-2.8-26.9-8.3c-9.2-5.5-15.1-12.5-17.7-20.9c-1.9-6.1-3.2-13.3-4-21.7c-4.6,5.3-9.5,10.4-14.9,15.2
			c-5.3,4.8-10.9,9.2-16.6,13.4c-1.9,1.5-3.7,1.9-5.4,1.1c-1.7-0.8-3-1.9-4-3.4c-0.9-1.5-1.3-3.3-1.1-5.4
			C54.6,334.3,55.7,332.7,57.6,331.6z M123.4,243.5c15.2-29,28.6-59.4,40-91.2c11.4-31.8,17.2-64.4,17.2-97.5
			c-4.2,6.5-7.6,13.5-10.3,21.2c-2.7,7.6-5.1,15.1-7.4,22.3c-5,14.9-9.2,29.8-12.9,44.9c-3.6,15.1-7.5,30.2-11.7,45.5
			c-2.3,9.2-4.7,18.3-7.2,27.5C128.6,225.2,126,234.3,123.4,243.5z"/>
		<path class="st0" d="M274.4,331.6c1.9-1.5,3.9-2.1,6-1.7c2.1,0.4,3.8,1.2,5.1,2.6c1.3,1.3,2.1,3,2.3,4.9c0.2,1.9-0.7,3.6-2.6,5.1
			c-4.2,3.4-8.4,7-12.6,10.6c-4.2,3.6-8.8,7-13.7,10c-1.9,1.1-3.7,1.9-5.4,2.3c-1.7,0.4-3.5,0.6-5.4,0.6c-5.3,0-9.5-1.6-12.6-4.9
			c-3.1-3.2-5.4-7.2-7.1-11.7c-1.7-4.6-2.9-9.4-3.4-14.6s-0.9-9.6-0.9-13.4c-6.9,7.6-15.3,15.1-25.2,22.3c-1.9,1.5-3.8,1.9-5.7,1.1
			c-1.9-0.8-3.3-1.9-4.3-3.4c-0.9-1.5-1.3-3.3-1.1-5.4c0.2-2.1,1.2-3.9,3.1-5.4c6.1-4.6,12.1-9.8,18-15.7
			c5.9-5.9,11.5-12.1,16.9-18.6c0.4-3.4,1.3-9.5,2.9-18.3c1.5-8.8,3.4-17.9,5.7-27.5c2.3-9.5,4.8-18.4,7.4-26.6
			c2.7-8.2,5.3-13.4,8-15.7c5.3-4.6,10.3-4.6,14.9,0c3.8,3.8,6.1,9,6.9,15.4c0.8,6.5,0.8,12.4,0,17.7c-1.9,9.9-6,20.6-12.3,32
			c-6.3,11.4-12.7,21.2-19.2,29.2v1.1c-0.4,5.7-0.6,11.7-0.6,18c0,6.3,0.4,12.3,1.1,18c0.4,2.7,1.1,5.2,2.3,7.7
			c1.1,2.5,3.2,3.7,6.3,3.7c1.5-0.8,2.7-1.5,3.4-2.3c0.8-0.8,1.6-1.3,2.6-1.7c0.9-0.4,2-0.9,3.1-1.7c3-1.5,5.8-3.5,8.3-6
			C269.1,336.8,271.7,334.2,274.4,331.6z M244.6,267.5c5-8.4,8.8-16.8,11.4-25.2c0.8-2.3,1.1-4.5,1.1-6.6c0-2.1-0.2-4.1-0.6-6v-1.1
			C252.1,240.8,248.1,253.8,244.6,267.5z M269.2,180c-5,0-8.6-1.6-10.9-4.9c-2.3-3.2-3.4-6.7-3.4-10.3c0-3.6,1.1-7.1,3.4-10.3
			c2.3-3.2,5.9-4.9,10.9-4.9c5,0,8.7,1.6,11.2,4.9c2.5,3.2,3.7,6.7,3.7,10.3c0,3.6-1.2,7.1-3.7,10.3
			C277.9,178.4,274.2,180,269.2,180z"/>
		<path class="st0" d="M275.5,332.1c8.4-7.2,16.3-15.1,23.7-23.5c7.4-8.4,13.2-17.7,17.4-28c1.5-3.8,3-7.6,4.6-11.4
			c1.5-3.8,3.2-7.8,5.1-12c4.2-9.9,8-19.3,11.4-28c1.5-3.4,2.9-6.8,4-10c1.1-3.2,2.5-6.6,4-10c1.1-2.3,3-3.4,5.7-3.4
			c2.7,0,5,1,6.9,2.9c1.9,1.9,2.3,4.2,1.1,6.9l-8,19.4c-0.8,2.7-1.5,5.1-2.3,7.4c-0.8,2.3-1.5,4.6-2.3,6.9c-0.8,3.1-1.4,5.6-2,7.7
			c-0.6,2.1-0.5,4.5,0.3,7.1c0.8,3.1,1.9,5.8,3.4,8.3c1.5,2.5,2.9,5.1,4,7.7c3.4,7.6,6,15.9,7.7,24.9c1.7,9,1.4,17.8-0.9,26.6
			c-1.5,5-3.4,9.3-5.7,13.2c4.2-2.3,8.3-4.7,12.3-7.2c4-2.5,7.7-4.7,11.2-6.6c1.9-1.1,3.8-1.3,5.7-0.6c1.9,0.8,3.2,1.9,4,3.4
			c0.8,1.5,1,3.3,0.9,5.4c-0.2,2.1-1.2,3.7-3.1,4.9c-8.4,5.3-17.4,10.3-27.2,14.9s-19.5,6.9-29.5,6.9c-5.7,0-11.2-0.9-16.3-2.9
			c-5.1-1.9-10.2-5.3-15.2-10.3c-3.1-3-3.2-6.2-0.6-9.4c2.7-3.2,5.9-3.9,9.7-2c3,1.5,6.3,2.8,9.7,3.7c3.4,1,6.7,1.4,9.7,1.4
			c5.3,0,9.7-1.9,13.2-5.7c4.2-4.2,6.7-9.2,7.4-14.9c0.8-5.7,0.8-11.6,0-17.7c-1.5-10.3-5.3-20.6-11.4-30.9
			c-10.3,25.2-26.3,46.9-48,65.2c-1.9,1.5-3.9,2.2-6,2c-2.1-0.2-3.8-0.9-5.1-2.3c-1.3-1.3-2.1-2.9-2.3-4.9
			C272.7,335.4,273.6,333.7,275.5,332.1z"/>
		<path class="st0" d="M376.7,331.6c3.1-2.7,6.2-5.1,9.4-7.4c3.2-2.3,6.4-4.6,9.4-6.9c-0.8-9.9,0.7-19.6,4.3-29.2
			c3.6-9.5,7.5-18.5,11.7-26.9c3-6.1,7.2-12.3,12.6-18.6c5.3-6.3,11.2-12,17.4-17.2s13.1-9.5,20.3-13.2c7.2-3.6,14.5-5.6,21.7-6
			c4.2-0.4,8.8-0.1,13.7,0.9c5,1,9.2,3.1,12.6,6.6c1.9,1.9,3.2,4.6,4,8c1.9,1.1,2.9,2.9,2.9,5.1c0,7.6-0.8,15.1-2.3,22.3
			c-1.5,7.2-3.4,14.5-5.7,21.7c-1.5,4.2-2.9,8.3-4,12.3s-2.5,8.1-4,12.3c-1.9,8.8-3.2,18.7-4,29.7c-0.4,3.4-0.6,7.1-0.6,11.2
			c0,4,0.9,7.5,2.9,10.6c1.9,3.4,4,4.9,6.3,4.3s4.8-1.6,7.4-3.1c4.2-2.3,8.3-5,12.3-8c4-3,8.1-6.1,12.3-9.2c1.9-1.5,3.7-1.9,5.4-1.1
			c1.7,0.8,3,1.9,4,3.4c0.9,1.5,1.3,3.3,1.1,5.4c-0.2,2.1-1.2,3.9-3.1,5.4c-5.3,4.2-10.7,8.2-16,12c-5.3,3.8-11.1,6.9-17.2,9.2
			c-4.2,1.9-8.5,1.9-12.9,0c-4.4-1.9-7.9-4.4-10.6-7.4c-3.4-4.6-5.5-10.5-6.3-17.7c-5.3,8-11.6,14.7-18.9,20
			c-7.2,5.3-16,7.2-26.3,5.7c-9.2-1.1-17.1-4.7-23.7-10.6c-6.7-5.9-11.5-13.1-14.6-21.4l-13.7,10.3c-1.9,1.5-3.9,1.9-6,1.1
			c-2.1-0.8-3.5-1.9-4.3-3.4c-1.1-1.9-1.4-3.8-0.9-5.7C374.2,334.2,375.2,332.7,376.7,331.6z M445.4,280.1
			c5.7-4.2,11.3-8.4,16.9-12.6c5.5-4.2,10.8-8.6,15.7-13.2c3-3,7.1-7.3,12.3-12.9c5.1-5.5,8.1-10.4,8.9-14.6V224
			c0-0.4,0.2-0.4,0.6,0c0.4,0.4,0.2,0.4-0.6,0c-3.4-1.9-7.4-2.9-12-2.9c-9.2,0-18,2.8-26.6,8.3c-8.6,5.5-16.3,12.5-23.2,20.9
			c-6.9,8.4-12.7,17.5-17.4,27.5c-4.8,9.9-7.7,19.1-8.9,27.5c5.7-4.2,11.4-8.4,17.2-12.6C433.9,288.5,439.7,284.3,445.4,280.1z
			 M411.6,323.6c0,1.5,0.2,2.7,0.6,3.4c2.3,7.2,6.7,13.5,13.2,18.9c6.5,5.3,13.9,6.9,22.3,4.6c5.7-1.5,10.4-4.4,14-8.6
			c3.6-4.2,6.8-8.6,9.4-13.2c1.1-2.3,2.6-5.1,4.3-8.6s3.3-7.2,4.9-11.2c1.5-4,2.9-7.9,4.3-11.7c1.3-3.8,2.4-7.1,3.1-9.7
			c0.8-2.3,1.2-4.5,1.4-6.6c0.2-2.1,0.7-4.1,1.4-6c1.5-4.2,2.9-9.5,4-16c-5.7,6.1-11.9,11.7-18.6,16.9c-6.7,5.1-13.4,10.2-20.3,15.2
			c-7.6,5.3-15.1,10.8-22.3,16.3C426.1,312.8,418.9,318.2,411.6,323.6z"/>
	</g>
</g>
</svg>
