<?xml version="1.0" encoding="utf-8"?>
<!-- Generator: Adobe Illustrator 23.1.1, SVG Export Plug-In . SVG Version: 6.00 Build 0)  -->
<svg version="1.1" id="Layer_1" xmlns="http://www.w3.org/2000/svg" xmlns:xlink="http://www.w3.org/1999/xlink" x="0px" y="0px"
	 viewBox="0 0 400 400" style="enable-background:new 0 0 400 400;" xml:space="preserve">
<style type="text/css">
	.st0{fill:#196AFF;}
	.st1{fill:#FFFFFF;stroke:#FFFFFF;stroke-width:10;stroke-miterlimit:10;}
</style>
<g>
	<path class="st0" d="M400,360c0,22-18,40-40,40H40c-22,0-40-18-40-40V40C0,18,18,0,40,0h320c22,0,40,18,40,40V360z"/>
</g>
<g id="background_1_">
	<g id="background">
	</g>
</g>
<g>
	<g>
		<path class="st1" d="M-7.5,314.6c12.7-9.6,23.8-21.7,33.6-36.3c0.7-6.6,2-13.1,3.9-19.3c2-6.2,3.7-12.8,5.4-19.3
			c3.2-12.6,6.4-24.9,9.5-37c3.1-12.1,6.2-24.2,9.5-36.4c3.6-14.6,7.2-29,11-43.2c3.7-14.2,8.5-28.1,14.4-41.6
			c0.9-2,2.2-4.7,3.7-8.2c1.4-3.5,3.2-6.8,5.1-9.9c2-3.1,4.3-5.6,6.8-7.2c2.6-1.6,5.4-1.5,8.3,0.5c3.6,2.3,5.5,6.3,5.9,12.1
			s0.5,10.7,0.5,14.7c0,14.2-2.3,30.3-6.8,48.1S93,167.5,86,185.6c-7,18.2-14.7,35.8-23.2,52.8c-8.4,17-16.5,31.8-24.4,44.4
			c0,1.6-0.1,3-0.3,4.3c-0.2,1.1-0.3,2.6-0.3,4.3c0.3,4.3,0.7,8.8,0.9,13.4c0.3,4.6,1.3,8.8,2.9,12.4s4.7,6.9,9.3,9.7
			c4.5,2.8,8.6,4.5,12.2,5.2c7.5,1,15-0.6,22.7-4.7c7.7-4.2,14.6-8.3,20.7-12.7c1.6-1.3,3.2-1.6,4.9-1s2.7,1.6,3.4,2.9
			s0.9,2.9,0.8,4.7c-0.2,1.8-1,3.2-2.6,4.3c-6.5,4.3-13.6,8.6-21.5,12.9S75.6,345,67.2,345c-7.5,0-15.1-2.4-22.9-7.2
			c-7.8-4.8-12.9-10.8-15.1-18.1c-1.6-5.3-2.7-11.5-3.4-18.8c-3.9,4.6-8.1,9-12.7,13.2c-4.5,4.2-9.3,8-14.1,11.6
			c-1.6,1.3-3.2,1.6-4.6,1s-2.6-1.6-3.4-2.9c-0.8-1.3-1.1-2.9-0.9-4.7C-10,316.9-9.1,315.5-7.5,314.6z M48.5,238.1
			C61.5,213,72.9,186.6,82.6,159s14.6-55.9,14.6-84.6c-3.6,5.6-6.5,11.7-8.8,18.4c-2.3,6.6-4.3,13.1-6.3,19.3
			c-4.3,12.9-7.8,25.9-11,39c-3.1,13.1-6.4,26.2-10,39.5c-2,8-4,15.9-6.1,23.9C53,222.2,50.8,230.1,48.5,238.1z"/>
		<path class="st1" d="M177.1,314.6c1.6-1.3,3.3-1.8,5.1-1.5c1.8,0.3,3.2,1,4.3,2.3c1.1,1.1,1.8,2.6,2,4.3c0.2,1.6-0.6,3.1-2.2,4.4
			c-3.6,2.9-7.2,6.1-10.7,9.2s-7.5,6.1-11.7,8.7c-1.6,1-3.2,1.6-4.6,2c-1.4,0.3-3,0.5-4.6,0.5c-4.5,0-8.1-1.4-10.7-4.3
			c-2.6-2.8-4.6-6.2-6-10.1c-1.4-4-2.5-8.2-2.9-12.7c-0.4-4.5-0.8-8.3-0.8-11.6c-5.9,6.6-13,13.1-21.5,19.3c-1.6,1.3-3.2,1.6-4.9,1
			s-2.8-1.6-3.7-2.9c-0.8-1.3-1.1-2.9-0.9-4.7c0.2-1.8,1-3.4,2.6-4.7c5.2-4,10.3-8.5,15.3-13.6c5-5.1,9.8-10.5,14.4-16.1
			c0.3-2.9,1.1-8.2,2.5-15.9c1.3-7.6,2.9-15.5,4.9-23.9c2-8.2,4.1-16,6.3-23.1c2.3-7.1,4.5-11.6,6.8-13.6c4.5-4,8.8-4,12.7,0
			c3.2,3.3,5.2,7.8,5.9,13.4c0.7,5.6,0.7,10.8,0,15.4c-1.6,8.6-5.1,17.9-10.5,27.8c-5.4,9.9-10.8,18.4-16.4,25.3v1
			c-0.3,4.9-0.5,10.1-0.5,15.6c0,5.5,0.3,10.7,0.9,15.6c0.3,2.3,0.9,4.5,2,6.7c0.9,2.2,2.7,3.2,5.4,3.2c1.3-0.7,2.3-1.3,2.9-2
			c0.7-0.7,1.4-1.1,2.2-1.5c0.8-0.3,1.7-0.8,2.6-1.5c2.6-1.3,4.9-3,7.1-5.2C172.6,319.1,174.8,316.8,177.1,314.6z M151.8,258.9
			c4.3-7.3,7.5-14.6,9.7-21.9c0.7-2,0.9-3.9,0.9-5.7s-0.2-3.6-0.5-5.2v-1C158.1,235.8,154.7,247.1,151.8,258.9z M172.7,183
			c-4.3,0-7.3-1.4-9.3-4.3c-2-2.8-2.9-5.8-2.9-8.9s0.9-6.2,2.9-8.9c2-2.8,5-4.3,9.3-4.3c4.3,0,7.4,1.4,9.5,4.3
			c2.1,2.8,3.2,5.8,3.2,8.9s-1,6.2-3.2,8.9C180.1,181.6,177,183,172.7,183z"/>
		<path class="st1" d="M178.1,315c7.2-6.2,13.9-13.1,20.2-20.4c6.3-7.3,11.2-15.4,14.8-24.3c1.3-3.3,2.6-6.6,3.9-9.9
			c1.3-3.3,2.7-6.8,4.3-10.4c3.6-8.6,6.8-16.7,9.7-24.3c1.3-2.9,2.5-5.9,3.4-8.7c0.9-2.8,2.1-5.7,3.4-8.7c0.9-2,2.6-2.9,4.9-2.9
			c2.3,0,4.3,0.9,5.9,2.5s2,3.6,0.9,6l-6.8,16.8c-0.7,2.3-1.3,4.4-2,6.4c-0.7,2-1.3,4-2,6c-0.7,2.7-1.2,4.9-1.7,6.7
			c-0.5,1.8-0.4,3.9,0.3,6.2c0.7,2.7,1.6,5,2.9,7.2c1.3,2.2,2.5,4.4,3.4,6.7c2.9,6.6,5.1,13.8,6.6,21.6s1.2,15.4-0.8,23.1
			c-1.3,4.3-2.9,8.1-4.9,11.5c3.6-2,7.1-4.1,10.5-6.2c3.4-2.2,6.6-4.1,9.5-5.7c1.6-1,3.2-1.1,4.9-0.5c1.6,0.7,2.7,1.6,3.4,2.9
			c0.7,1.3,0.9,2.9,0.8,4.7c-0.2,1.8-1,3.2-2.6,4.3c-7.2,4.6-14.8,8.9-23.2,12.9c-8.3,4-16.6,6-25.1,6c-4.9,0-9.5-0.8-13.9-2.5
			c-4.3-1.6-8.7-4.6-12.9-8.9c-2.6-2.6-2.7-5.4-0.5-8.2c2.3-2.8,5-3.4,8.3-1.7c2.6,1.3,5.4,2.4,8.3,3.2c2.9,0.9,5.7,1.2,8.3,1.2
			c4.5,0,8.3-1.6,11.2-4.9c3.6-3.6,5.7-8,6.3-12.9c0.7-4.9,0.7-10.1,0-15.4c-1.3-8.9-4.5-17.9-9.7-26.8
			c-8.8,21.9-22.4,40.7-40.9,56.6c-1.6,1.3-3.3,1.9-5.1,1.7c-1.8-0.2-3.2-0.8-4.3-2c-1.1-1.1-1.8-2.5-2-4.3
			C175.7,317.8,176.5,316.4,178.1,315z"/>
		<path class="st1" d="M264.3,314.6c2.6-2.3,5.3-4.4,8-6.4c2.7-2,5.5-4,8-6c-0.7-8.6,0.6-17,3.7-25.3c3.1-8.2,6.4-16,10-23.3
			c2.6-5.3,6.1-10.7,10.7-16.1c4.5-5.5,9.5-10.4,14.8-14.9s11.2-8.2,17.3-11.5c6.1-3.1,12.3-4.9,18.5-5.2c3.6-0.3,7.5-0.1,11.7,0.8
			c4.3,0.9,7.8,2.7,10.7,5.7c1.6,1.6,2.7,4,3.4,6.9c1.6,1,2.5,2.5,2.5,4.4c0,6.6-0.7,13.1-2,19.3c-1.3,6.2-2.9,12.6-4.9,18.8
			c-1.3,3.6-2.5,7.2-3.4,10.7c-0.9,3.5-2.1,7-3.4,10.7c-1.6,7.6-2.7,16.2-3.4,25.8c-0.3,2.9-0.5,6.2-0.5,9.7c0,3.5,0.8,6.5,2.5,9.2
			c1.6,2.9,3.4,4.3,5.4,3.7c2-0.5,4.1-1.4,6.3-2.7c3.6-2,7.1-4.3,10.5-6.9c3.4-2.6,6.9-5.3,10.5-8c1.6-1.3,3.2-1.6,4.6-1
			s2.6,1.6,3.4,2.9c0.8,1.3,1.1,2.9,0.9,4.7c-0.2,1.8-1,3.4-2.6,4.7c-4.5,3.6-9.1,7.1-13.6,10.4c-4.5,3.3-9.5,6-14.6,8
			c-3.6,1.6-7.2,1.6-11,0s-6.7-3.8-9-6.4c-2.9-4-4.7-9.1-5.4-15.4c-4.5,6.9-9.9,12.8-16.1,17.4c-6.1,4.6-13.6,6.2-22.4,4.9
			c-7.8-1-14.6-4.1-20.2-9.2c-5.7-5.1-9.8-11.4-12.4-18.6l-11.7,8.9c-1.6,1.3-3.3,1.6-5.1,1s-3-1.6-3.7-2.9
			c-0.9-1.6-1.2-3.3-0.8-4.9C262.1,316.8,263,315.5,264.3,314.6z M322.8,269.9c4.9-3.6,9.6-7.3,14.4-10.9c4.7-3.6,9.2-7.5,13.4-11.5
			c2.6-2.6,6-6.3,10.5-11.2c4.3-4.8,6.9-9,7.6-12.7v-2.4c0-0.3,0.2-0.3,0.5,0c0.3,0.3,0.2,0.3-0.5,0c-2.9-1.6-6.3-2.5-10.2-2.5
			c-7.8,0-15.3,2.4-22.7,7.2c-7.3,4.8-13.9,10.8-19.8,18.1c-5.9,7.3-10.8,15.2-14.8,23.9c-4.1,8.6-6.6,16.6-7.6,23.9
			c4.9-3.6,9.7-7.3,14.6-10.9C313,277.2,317.9,273.5,322.8,269.9z M294,307.6c0,1.3,0.2,2.3,0.5,2.9c2,6.2,5.7,11.7,11.2,16.4
			c5.5,4.6,11.8,6,19,4c4.9-1.3,8.9-3.8,11.9-7.5c3.1-3.6,5.8-7.5,8-11.5c0.9-2,2.2-4.4,3.7-7.5c1.4-3,2.8-6.2,4.2-9.7
			c1.3-3.5,2.5-6.9,3.7-10.1c1.1-3.3,2-6.2,2.6-8.4c0.7-2,1-3.9,1.2-5.7c0.2-1.8,0.6-3.6,1.2-5.2c1.3-3.6,2.5-8.2,3.4-13.9
			c-4.9,5.3-10.1,10.1-15.8,14.7c-5.7,4.4-11.4,8.8-17.3,13.2c-6.5,4.6-12.9,9.4-19,14.1C306.3,298.2,300.2,302.9,294,307.6z"/>
	</g>
</g>
</svg>
